<svg xmlns="http://www.w3.org/2000/svg" width="41.521" height="41.53" viewBox="0 0 41.521 41.53">
  <path id="reload_refresh_update_icon_149403" d="M1,21.764A20.76,20.76,0,0,1,32.861,4.213l2.663-2.661a1.887,1.887,0,0,1,3.222,1.34v7.549a1.887,1.887,0,0,1-1.887,1.887H29.309a1.887,1.887,0,0,1-1.334-3.222L30.1,6.978A16.974,16.974,0,0,0,4.775,21.764a1.887,1.887,0,1,1-3.775,0Zm39.633-1.887a1.887,1.887,0,0,0-1.887,1.887A17,17,0,0,1,21.76,38.75a16.8,16.8,0,0,1-8.342-2.2l2.127-2.127A1.887,1.887,0,0,0,14.211,31.2H6.662a1.887,1.887,0,0,0-1.887,1.887v7.549a1.887,1.887,0,0,0,1.164,1.744,1.863,1.863,0,0,0,.723.143A1.887,1.887,0,0,0,8,41.972l2.663-2.656a20.555,20.555,0,0,0,11.1,3.208,20.785,20.785,0,0,0,20.76-20.76A1.887,1.887,0,0,0,40.633,19.877Z" transform="translate(-1 -0.995)" fill="#fff"/>
</svg>
