<svg xmlns="http://www.w3.org/2000/svg" width="14.441" height="16.632" viewBox="0 0 14.441 16.632">
  <g id="fire_-_trending_-_popular" data-name="fire - trending - popular" transform="translate(-35.136)">
    <path id="Path_5" data-name="Path 5" d="M39.2,16.632a4.237,4.237,0,0,1,.334-4.873,7.764,7.764,0,0,0,1.173-2.714,3.188,3.188,0,0,1,.44,2.445,6.169,6.169,0,0,0,1.345-4.62,7.978,7.978,0,0,1,2.494,9.763C53.958,11.556,47.218,3.96,46.045,3.1a2.783,2.783,0,0,1-.325,3.007C44.382,1.039,41.075,0,41.075,0c.391,2.616-1.418,5.476-3.162,7.613a5.653,5.653,0,0,0-.675-2.761c-.123,1.895-1.571,3.439-1.963,5.338C34.743,12.761,35.672,14.643,39.2,16.632Z" transform="translate(0 0)" fill="#fff"/>
  </g>
</svg>
