<svg xmlns="http://www.w3.org/2000/svg" width="16" height="16" viewBox="0 0 16 16">
  <path id="Star_5_1_" data-name="Star 5(1)" d="M8.459,1.224a.3.3,0,0,1,.586,0l1.692,5.409a.316.316,0,0,0,.293.235H16.44a.362.362,0,0,1,.172.646l-4.329,3.268a.379.379,0,0,0-.121.412l1.665,5.323c.1.32-.216.6-.465.412l-4.438-3.35a.28.28,0,0,0-.344,0l-4.438,3.35c-.249.188-.565-.092-.465-.412l1.665-5.323a.379.379,0,0,0-.121-.412L.891,7.514a.362.362,0,0,1,.172-.646H6.475a.316.316,0,0,0,.293-.235Z" transform="translate(-0.752 -0.989)" fill="#fff"/>
</svg>
