<svg xmlns="http://www.w3.org/2000/svg" width="33.797" height="27.038" viewBox="0 0 33.797 27.038">
  <path id="film_icon_124971" d="M0,5.38A3.39,3.39,0,0,1,3.38,2H30.417A3.38,3.38,0,0,1,33.8,5.38V25.658a3.38,3.38,0,0,1-3.38,3.38H3.38A3.38,3.38,0,0,1,0,25.658Zm10.139,0V25.658H23.658V5.38ZM3.38,7.07v3.38h3.38V7.07Zm0,6.759v3.38h3.38v-3.38Zm0,6.759v3.38h3.38v-3.38ZM27.038,7.07v3.38h3.38V7.07Zm0,6.759v3.38h3.38v-3.38Zm0,6.759v3.38h3.38v-3.38ZM13.519,10.449l8.449,5.07-8.449,5.07Z" transform="translate(0 -2)" fill="#fff"/>
</svg>
