<svg id="robot-not-found" xmlns="http://www.w3.org/2000/svg" width="186.196" height="117.611" viewBox="0 0 186.196 117.611">
  <g id="Group_7" data-name="Group 7" transform="translate(0 25.323)">
    <g id="Group_4" data-name="Group 4" transform="translate(0 0)">
      <g id="Group_1" data-name="Group 1" transform="translate(77.211 42.501)">
        <path id="Path_1" data-name="Path 1" d="M9.951,22.808c4.375,2.568,12.823,3.367,19.371.892A6.592,6.592,0,0,1,27.1,21.947h0a6.608,6.608,0,0,1-1.459-5.329,18.282,18.282,0,0,1-8.767.434Z" transform="translate(-9.951 5.506)" fill="#f8f8f8"/>
        <path id="Path_2" data-name="Path 2" d="M37.253,27.431a2.887,2.887,0,1,0-3.429-4.646l-1.249.915L29.8,19.906,31.016,19a2.893,2.893,0,1,0-3.436-4.655l-3.522,2.6a3.561,3.561,0,0,0-.5.473c-.016.016-.031.023-.046.039a3.579,3.579,0,0,0-.753,5.027l.3.4-9.876,7.3-.039.434A6.558,6.558,0,0,1,15.951,32.6c.07.1.147.2.217.3a6.746,6.746,0,0,1,1.319,3.959l10.295-7.61.341.458a3.563,3.563,0,0,0,5,.753c.1-.07.186-.155.287-.24a2.093,2.093,0,0,0,.31-.194Zm-3.545,2.6" transform="translate(11.619 -13.779)" fill="#f8f8f8"/>
        <circle id="Ellipse_1" data-name="Ellipse 1" cx="4.352" cy="4.352" r="4.352" transform="translate(17.765 18.967)" fill="#f8f8f8"/>
      </g>
      <g id="Group_2" data-name="Group 2" transform="translate(21.581)">
        <path id="Path_3" data-name="Path 3" d="M10.129,11.353" transform="translate(46.881 12.429)" fill="#f8f8f8"/>
        <path id="Path_4" data-name="Path 4" d="M11.723,12.946" transform="translate(57.653 23.193)" fill="#f8f8f8"/>
        <path id="Path_5" data-name="Path 5" d="M54.337,60.964l3.778-3.778L62.924,62S89.385,45.534,84.389,40.531l-5.066-5.066c.24-1.644-1.094-4.461-3.475-7.339l-1.364-1.512c-.07-.078-.133-.133-.194-.194a1.771,1.771,0,0,0-.171-.171c1.063-2.017,3.894-8.394,1.063-13.5a3.331,3.331,0,1,0-1.412,1.676c1.567,3.809-.248,8.44-1.187,10.457-2.863-2.4-5.71-3.724-7.354-3.483l-5.051-5.05c-5-5-21.442,21.449-21.442,21.449l4.8,4.8-3.786,3.786-9.9-9.891-5.236,5.981L2.78,67.395,6.4,71.01,12,76.6,24.129,88.728l5.609,5.609L33.36,97.95,58.254,76.1l5.989-5.229Zm-.07-26.9a5.346,5.346,0,1,1,3.8,1.587,5.362,5.362,0,0,1-3.8-1.587Zm-.721,22.024-8.921-8.921,8.308-8.3,4.46,4.453,4.461,4.461Zm13.1-17.222a5.349,5.349,0,1,1-1.578,3.788,5.359,5.359,0,0,1,1.578-3.788Z" transform="translate(-2.78 -8.231)" fill="#f8f8f8"/>
      </g>
      <g id="Group_3" data-name="Group 3" transform="translate(0 25.83)">
        <path id="Path_6" data-name="Path 6" d="M22.857,12.727c-4.709-1.9-13.172-1.435-19.285,1.986a6.553,6.553,0,0,1,2.459,1.4h0a6.633,6.633,0,0,1,2.242,5.05,18.179,18.179,0,0,1,8.611-1.73Z" transform="translate(24.154 -11.617)" fill="#f8f8f8"/>
        <path id="Path_7" data-name="Path 7" d="M.815,25.246a2.885,2.885,0,1,0,4.08,4.081l1.1-1.094L9.3,31.584,8.223,32.662a2.893,2.893,0,1,0,4.1,4.088l3.1-3.1a3.3,3.3,0,0,0,.427-.543l.039-.039a3.577,3.577,0,0,0,0-5.081l-.341-.349,8.688-8.689L24.2,18.52a6.633,6.633,0,0,1-3.072-1.561l-.264-.262a6.708,6.708,0,0,1-1.885-3.716L9.938,22.034l-.411-.4a3.563,3.563,0,0,0-5.058,0c-.085.085-.155.186-.248.279a2.694,2.694,0,0,0-.279.24Zm3.126-3.1" transform="translate(0.031 -2.4)" fill="#f8f8f8"/>
        <ellipse id="Ellipse_2" data-name="Ellipse 2" cx="4.36" cy="4.36" rx="4.36" ry="4.36" transform="translate(21.527 4.957)" fill="#f8f8f8"/>
      </g>
    </g>
    <g id="Group_5" data-name="Group 5" transform="translate(133.375 58.497)">
      <path id="Path_8" data-name="Path 8" d="M29.581,27.754V18.538l-.675-.605a5.468,5.468,0,0,1-2.723.9h-.31a5.659,5.659,0,0,1-2.917-.807v9.285A8.547,8.547,0,0,0,17.191,35.4H34.3a8.539,8.539,0,0,0-4.716-7.641Zm0,0" transform="translate(-17.191 -1.603)" fill="#f8f8f8"/>
      <path id="Path_9" data-name="Path 9" d="M17.934,15.836v6.734a5.667,5.667,0,0,1,6.608.582l-.3-7.323Z" transform="translate(-12.17 -15.828)" fill="#f8f8f8"/>
      <ellipse id="Ellipse_3" data-name="Ellipse 3" cx="3.638" cy="3.638" rx="3.638" ry="3.638" transform="translate(4.911 7.936)" fill="#f8f8f8"/>
    </g>
    <g id="Group_6" data-name="Group 6" transform="translate(156.136 55.147)">
      <path id="Path_10" data-name="Path 10" d="M31.588,24.723,27.058,16.6a5.354,5.354,0,0,1-2.125,2.133c-.085.046-.194.109-.272.147a5.428,5.428,0,0,1-2.816.551l-.295.845,4.483,8.036a8.568,8.568,0,0,0-.4,8.966l14.926-8.321a8.532,8.532,0,0,0-8.966-4.236Zm0,0" transform="translate(-10.496 -7.232)" fill="#f8f8f8"/>
      <path id="Path_11" data-name="Path 11" d="M20.125,21.465l6.959,2.288a5.667,5.667,0,0,1,1.249-6.517L21.847,15.4Z" transform="translate(-20.125 -15.4)" fill="#f8f8f8"/>
      <ellipse id="Ellipse_4" data-name="Ellipse 4" cx="3.638" cy="3.638" rx="3.638" ry="3.638" transform="translate(8.153 2.869)" fill="#f8f8f8"/>
    </g>
  </g>
  <g id="Group_8" data-name="Group 8" transform="translate(55.288 0)">
    <path id="Path_12" data-name="Path 12" d="M7.125,31.491a2.5,2.5,0,0,1,2.506-2.637,2.447,2.447,0,0,1,2.506,2.637,2.509,2.509,0,1,1-5.011,0Zm1.063-6.074L7.6,5.023h4.08l-.605,20.394Z" transform="translate(-7.125 -5.023)" fill="#f8f8f8"/>
    <path id="Path_13" data-name="Path 13" d="M8.385,31.491a2.5,2.5,0,0,1,2.506-2.637A2.447,2.447,0,0,1,13.4,31.491a2.461,2.461,0,0,1-2.506,2.63A2.488,2.488,0,0,1,8.385,31.491Zm1.063-6.074L8.858,5.023H12.94l-.6,20.394Z" transform="translate(1.39 -5.023)" fill="#f8f8f8"/>
  </g>
</svg>
